# xmcd
#
# Track frame offsets:
#	150
#	17393
#	34033
#	52220
#	68123
#	81890
#	99413
#	113843
#	130798
#	143087
#	156746
#	172896
#	190771
#
# Disc length: 2704 seconds
#
# Revision: 1
# Processed by: cddbd v1.5.2PL0 Copyright (c) Steve Scherf et al.
# Submitted via: audiograbber 1.83.01
#
DISCID=a90a8e0d
DTITLE=Lightnin Rod And The Thunderbolts - Guilty Of The Blues
DYEAR=2014
DGENRE=Blues
TTITLE0=Black Widow
TTITLE1=Guilty Of The Blues
TTITLE2=Best Days
TTITLE3=Hurry
TTITLE4=Shufflin Sue
TTITLE5=Living In A Smokescreen
TTITLE6=I-75 Highway Blues
TTITLE7=Midwest Boy
TTITLE8=Brand New Shoes
TTITLE9=Rebel Blues
TTITLE10=Walking In These Shoes
TTITLE11=Rooster In The Hen House
TTITLE12=Love You Too Much
EXTD=Rod Wilson\nJohn Francis on Trumpet
EXTT0=
EXTT1=
EXTT2=
EXTT3=
EXTT4=
EXTT5=
EXTT6=
EXTT7=
EXTT8=
EXTT9=
EXTT10=
EXTT11=
EXTT12=
PLAYORDER=
